# xmcd
#
# Track frame offsets:
#	150
#	14224
#	24193
#	48646
#	64877
#	78316
#	90082
#	103975
#	124486
#	139591
#	152045
#	164748
#
# Disc length: 2454 seconds
#
# Revision: 1
# Processed by: cddbd v1.5.2PL0 Copyright (c) Steve Scherf et al.
# Submitted via: audiograbber 1.83.01
#
DISCID=a109940c
DTITLE=Willie Nelson - For the Good Times: A Tribute to Ray Price
DYEAR=2016
DGENRE=Country
TTITLE0=Heartaches by the Number
TTITLE1=I'll Be There (If You Ever Want Me)
TTITLE2=Faded Love
TTITLE3=It Always Will Be
TTITLE4=City Lights
TTITLE5=Don't You Ever Get Tired of Hurting me
TTITLE6=Make the World Go Away
TTITLE7=I'm Still Not Over You
TTITLE8=Night Life
TTITLE9=Crazy Arms
TTITLE10=Invitations to the Blues
TTITLE11=For the Good Times
EXTD=
EXTT0=
EXTT1=
EXTT2=
EXTT3=
EXTT4=
EXTT5=
EXTT6=
EXTT7=
EXTT8=
EXTT9=
EXTT10=
EXTT11=
PLAYORDER=
